<svg width="40" height="41" viewBox="0 0 40 41" fill="none" xmlns="http://www.w3.org/2000/svg">
<g clip-path="url(#clip0_225_456)">
<path d="M22.5 17.1666L29.1667 23.8333M29.1667 17.1666L22.5 23.8333M32.6583 31.3333H15.4967C14.6273 31.3332 13.7924 30.9935 13.17 30.3866L4.25332 21.6933C4.09407 21.538 3.9675 21.3524 3.88109 21.1475C3.79467 20.9426 3.75015 20.7224 3.75015 20.5C3.75015 20.2775 3.79467 20.0574 3.88109 19.8524C3.9675 19.6475 4.09407 19.4619 4.25332 19.3066L13.17 10.6133C13.7924 10.0064 14.6273 9.66671 15.4967 9.66663H32.6583C34.2417 9.66663 36.3633 10.5683 36.3633 12.375V28.625C36.3633 30.4316 34.2417 31.3333 32.6583 31.3333Z" stroke="white" stroke-width="2" stroke-linecap="round" stroke-linejoin="round"/>
</g>
<defs>
<clipPath id="clip0_225_456">
<rect width="40" height="40" fill="white" transform="translate(0 0.5)"/>
</clipPath>
</defs>
</svg>
