<svg width="25" height="25" viewBox="0 0 25 25" fill="none" xmlns="http://www.w3.org/2000/svg">
<g clip-path="url(#clip0_230_60)">
<g filter="url(#filter0_i_230_60)">
<path d="M2 12.5C2 12.0817 2.16617 11.6805 2.46195 11.3847C2.75774 11.089 3.15891 10.9228 3.57721 10.9228H10.9228V3.57721C10.9228 3.15891 11.089 2.75774 11.3847 2.46195C11.6805 2.16617 12.0817 2 12.5 2C12.9183 2 13.3195 2.16617 13.6153 2.46195C13.911 2.75774 14.0772 3.15891 14.0772 3.57721V10.9228H21.4228C21.8411 10.9228 22.2423 11.089 22.538 11.3847C22.8338 11.6805 23 12.0817 23 12.5C23 12.9183 22.8338 13.3195 22.538 13.6153C22.2423 13.911 21.8411 14.0772 21.4228 14.0772H14.0772V21.4228C14.0772 21.8411 13.911 22.2423 13.6153 22.538C13.3195 22.8338 12.9183 23 12.5 23C12.0817 23 11.6805 22.8338 11.3847 22.538C11.089 22.2423 10.9228 21.8411 10.9228 21.4228V14.0772H3.57721C3.15891 14.0772 2.75774 13.911 2.46195 13.6153C2.16617 13.3195 2 12.9183 2 12.5Z" fill="white"/>
<path fill-rule="evenodd" clip-rule="evenodd" d="M5.5175 0.385804C10.1583 -0.128601 14.8417 -0.128601 19.4825 0.385804C22.052 0.673804 24.125 2.6973 24.4265 5.2758C24.977 9.98276 24.977 14.7378 24.4265 19.4448C24.125 22.0233 22.052 24.0468 19.4825 24.3348C14.8417 24.8493 10.1583 24.8493 5.5175 24.3348C2.948 24.0468 0.874998 22.0233 0.573498 19.4448C0.0230267 14.7383 0.0230267 9.98376 0.573498 5.2773C0.726 4.02461 1.29707 2.86012 2.19415 1.97257C3.09123 1.08502 4.26175 0.52642 5.516 0.387304M12.5 4.8708C12.7984 4.8708 13.0845 4.98933 13.2955 5.20031C13.5065 5.41129 13.625 5.69744 13.625 5.9958V11.2353H18.8645C19.1629 11.2353 19.449 11.3538 19.66 11.5648C19.871 11.7758 19.9895 12.0619 19.9895 12.3603C19.9895 12.6587 19.871 12.9448 19.66 13.1558C19.449 13.3668 19.1629 13.4853 18.8645 13.4853H13.625V18.7248C13.625 19.0232 13.5065 19.3093 13.2955 19.5203C13.0845 19.7313 12.7984 19.8498 12.5 19.8498C12.2016 19.8498 11.9155 19.7313 11.7045 19.5203C11.4935 19.3093 11.375 19.0232 11.375 18.7248V13.4853H6.1355C5.83713 13.4853 5.55098 13.3668 5.34 13.1558C5.12902 12.9448 5.0105 12.6587 5.0105 12.3603C5.0105 12.0619 5.12902 11.7758 5.34 11.5648C5.55098 11.3538 5.83713 11.2353 6.1355 11.2353H11.375V5.9958C11.375 5.69744 11.4935 5.41129 11.7045 5.20031C11.9155 4.98933 12.2016 4.8708 12.5 4.8708Z" fill="#A74E9E"/>
</g>
</g>
<defs>
<filter id="filter0_i_230_60" x="0.160645" y="0" width="24.6787" height="26.2207" filterUnits="userSpaceOnUse" color-interpolation-filters="sRGB">
<feFlood flood-opacity="0" result="BackgroundImageFix"/>
<feBlend mode="normal" in="SourceGraphic" in2="BackgroundImageFix" result="shape"/>
<feColorMatrix in="SourceAlpha" type="matrix" values="0 0 0 0 0 0 0 0 0 0 0 0 0 0 0 0 0 0 127 0" result="hardAlpha"/>
<feOffset dy="1.5"/>
<feGaussianBlur stdDeviation="2"/>
<feComposite in2="hardAlpha" operator="arithmetic" k2="-1" k3="1"/>
<feColorMatrix type="matrix" values="0 0 0 0 0 0 0 0 0 0 0 0 0 0 0 0 0 0 0.25 0"/>
<feBlend mode="normal" in2="shape" result="effect1_innerShadow_230_60"/>
</filter>
<clipPath id="clip0_230_60">
<rect width="24.6787" height="24.7207" fill="white" transform="translate(0.160645)"/>
</clipPath>
</defs>
</svg>
